<svg xmlns="http://www.w3.org/2000/svg" width="515" height="515" viewBox="0 0 515 515" version="1.1">
	<path d="M 116.334 44.413 C 94.666 48.549, 80.972 56.123, 62.113 74.402 C 40.148 95.690, 26.997 118.542, 26.894 135.597 C 26.830 146.428, 27.706 149.525, 34.504 162.502 C 37.962 169.102, 42.270 178.737, 44.077 183.911 C 48.030 195.232, 51.570 200.170, 59.612 205.582 C 66.081 209.935, 84.968 216.734, 103.632 221.427 C 109.205 222.829, 118.699 225.743, 124.730 227.903 C 140.651 233.606, 143.709 233.653, 149.982 228.284 C 155.815 223.290, 161.617 214.071, 163.103 207.433 C 165.268 197.755, 162.458 190.402, 149.684 172.318 C 147.036 168.568, 139.673 156.725, 133.323 146 C 126.972 135.275, 120.609 125.254, 119.182 123.730 C 117.755 122.207, 113.418 119.451, 109.544 117.606 C 102.161 114.089, 97.195 110, 100.307 110 C 107.680 110, 124.214 122.289, 129.699 131.845 C 135.683 142.270, 137.781 144.605, 144.174 147.956 C 153.313 152.745, 164.324 161.193, 173.500 170.454 C 182.454 179.491, 191.239 190.693, 190.793 192.504 C 190.632 193.160, 168.358 216.692, 141.295 244.799 C 111.246 276.008, 91.230 297.575, 89.880 300.201 C 84.682 310.306, 86.824 327.826, 95.444 345.720 C 103.284 361.997, 113.579 375.621, 129.660 391 C 161.841 421.778, 201.101 436.662, 221.992 426.004 C 224.054 424.952, 232.090 417.469, 239.849 409.375 L 253.957 394.660 241.727 382.080 C 204.167 343.447, 199.014 320.720, 221.076 291.009 C 224.143 286.879, 233.143 276.614, 241.076 268.197 C 280.726 226.131, 287.869 217.642, 293.407 206 C 296.191 200.149, 296.500 198.551, 296.500 190 C 296.500 181.015, 296.296 180.093, 292.742 173 C 287.497 162.536, 280.619 153.725, 265.250 137.784 C 257.962 130.226, 252 123.549, 252 122.947 C 252 122.345, 246.038 115.635, 238.750 108.036 C 231.463 100.437, 221.296 89.672, 216.158 84.115 C 204.856 71.890, 194.786 64.130, 181.103 57.102 C 158.448 45.465, 134.946 40.861, 116.334 44.413 M 302.054 86.148 C 293.782 87.503, 289.397 90.707, 274.641 106.181 L 261.091 120.390 273.303 132.945 C 297.161 157.474, 306 173.059, 306 190.592 C 306 203.776, 300.576 215.786, 287.524 231.500 C 283.870 235.900, 271.495 249.400, 260.026 261.500 C 237.928 284.812, 229.819 294.183, 224.263 302.828 C 215.579 316.340, 214.881 327.428, 221.841 341.321 C 227.799 353.216, 234.265 361.261, 254.534 382 C 264.479 392.175, 278.254 407.250, 285.145 415.500 C 305.315 439.646, 317.676 450.166, 336.883 459.533 C 367.822 474.622, 396.815 475.619, 423.500 462.510 C 435.386 456.672, 443.288 450.526, 456.541 436.818 C 473.991 418.768, 484.472 401.847, 487.653 386.588 C 490.096 374.872, 488.251 365.852, 480.578 352 C 475.727 343.242, 473.359 337.863, 468.476 324.511 C 463.610 311.201, 449.144 303.274, 412 293.559 C 404.575 291.617, 394.212 288.489, 388.971 286.607 C 373.365 281.006, 370.600 281.235, 363.106 288.750 C 351.572 300.316, 348.479 313.052, 354.225 325.316 C 355.723 328.514, 359.919 335.264, 363.549 340.316 C 367.179 345.367, 375.330 358.275, 381.664 369 C 387.997 379.725, 394.376 389.769, 395.840 391.320 C 397.303 392.872, 401.650 395.637, 405.500 397.465 C 411.856 400.484, 417.749 405, 415.333 405 C 414.796 405, 412.139 404.264, 409.428 403.365 C 400.677 400.462, 388.392 389.615, 383.927 380.849 C 380.179 373.491, 377.301 370.502, 370.233 366.627 C 356.166 358.917, 341.678 346.274, 330.117 331.623 C 326.699 327.291, 324.037 323.194, 324.201 322.519 C 324.366 321.844, 346.624 298.334, 373.665 270.273 C 404.207 238.579, 423.685 217.596, 425.088 214.877 C 426.704 211.743, 427.473 208.183, 427.793 202.341 C 428.907 182.049, 415.289 154.903, 391.669 130.333 C 362.205 99.684, 326.598 82.128, 302.054 86.148 M 110 150 C 110 152.667, 110.667 154.667, 112 156 C 114.094 158.094, 120 158.784, 120 156.934 C 120 153.935, 113.696 146, 111.313 146 C 110.448 146, 110 147.364, 110 150 M 79.223 196.557 C 76.124 198.727, 76.451 200.613, 80.149 201.902 C 85.437 203.745, 91 203.061, 91 200.567 C 91 198.519, 86.518 195, 83.908 195 C 82.553 195, 80.445 195.701, 79.223 196.557 M 425.250 312.662 C 421.970 313.986, 427.021 320, 431.412 320 C 434.076 320, 438 317.344, 438 315.541 C 438 313.121, 429.095 311.111, 425.250 312.662 M 395 358.066 C 395 361.065, 401.304 369, 403.687 369 C 405.872 369, 405.346 361.346, 403 359 C 400.906 356.906, 395 356.216, 395 358.066" stroke="none" fill="black" fill-rule="evenodd"/>
</svg>