<?xml version="1.0" encoding="UTF-8" standalone="no"?>
<svg
   xmlns:dc="http://purl.org/dc/elements/1.1/"
   xmlns:cc="http://creativecommons.org/ns#"
   xmlns:rdf="http://www.w3.org/1999/02/22-rdf-syntax-ns#"
   xmlns:svg="http://www.w3.org/2000/svg"
   xmlns="http://www.w3.org/2000/svg"
   xmlns:xlink="http://www.w3.org/1999/xlink"
   xmlns:sodipodi="http://sodipodi.sourceforge.net/DTD/sodipodi-0.dtd"
   xmlns:inkscape="http://www.inkscape.org/namespaces/inkscape"
   inkscape:version="1.0 (4035a4fb49, 2020-05-01)"
   inkscape:export-ydpi="96.562508"
   inkscape:export-xdpi="96.562508"
   inkscape:export-filename="/home/fy/dev/Fysk/naginie_admin/public/naginie.png"
   sodipodi:docname="naginie.svg"
   id="svg1622"
   version="1.1"
   viewBox="0 0 135.46666 135.46667"
   height="512"
   width="512">
  <defs
     id="defs1616">
    <linearGradient
       gradientTransform="matrix(3.7795276,0,0,3.7795276,-7.5590548e-5,2.3319685e-4)"
       inkscape:collect="always"
       xlink:href="#linearGradient1577"
       id="linearGradient1579"
       x1="118.13026"
       y1="101.20263"
       x2="15.672104"
       y2="39.592464"
       gradientUnits="userSpaceOnUse" />
    <linearGradient
       inkscape:collect="always"
       id="linearGradient1577">
      <stop
         style="stop-color:#008066;stop-opacity:1"
         offset="0"
         id="stop1573" />
      <stop
         id="stop6394"
         offset="0.50866705"
         style="stop-color:#005544;stop-opacity:1" />
      <stop
         style="stop-color:#00aa88;stop-opacity:1"
         offset="1"
         id="stop1575" />
    </linearGradient>
    <filter
       height="1.0000217"
       y="-1.0829704e-05"
       width="1.0000215"
       x="-1.0770459e-05"
       id="filter2219"
       style="color-interpolation-filters:sRGB"
       inkscape:collect="always">
      <feGaussianBlur
         id="feGaussianBlur2221"
         stdDeviation="0.00057608866"
         inkscape:collect="always" />
    </filter>
  </defs>
  <sodipodi:namedview
     showguides="true"
     inkscape:snap-global="false"
     inkscape:window-maximized="1"
     inkscape:window-y="0"
     inkscape:window-x="0"
     inkscape:window-height="1011"
     inkscape:window-width="1920"
     units="px"
     showgrid="false"
     inkscape:document-rotation="0"
     inkscape:current-layer="layer1"
     inkscape:document-units="mm"
     inkscape:cy="338.11833"
     inkscape:cx="255.43906"
     inkscape:zoom="0.98994949"
     inkscape:pageshadow="2"
     inkscape:pageopacity="0.0"
     borderopacity="1.0"
     bordercolor="#666666"
     pagecolor="#ffffff"
     id="base" />
  <metadata
     id="metadata1619">
    <rdf:RDF>
      <cc:Work
         rdf:about="">
        <dc:format>image/svg+xml</dc:format>
        <dc:type
           rdf:resource="http://purl.org/dc/dcmitype/StillImage" />
        <dc:title></dc:title>
      </cc:Work>
    </rdf:RDF>
  </metadata>
  <g
     style="filter:url(#filter2219)"
     id="layer1"
     inkscape:groupmode="layer"
     inkscape:label="Layer 1">
    <g
       transform="matrix(1.1573562,0,0,1.1573562,-10.658257,-10.658257)"
       id="g6441">
      <path
         style="fill:#aaffee;fill-opacity:1;stroke:none;stroke-width:0.264583px;stroke-linecap:butt;stroke-linejoin:miter;stroke-opacity:1"
         d="m 24.791012,51.890032 7.515605,-11.355255 5.879899,3.850267 -5.175364,12.369393 -6.043385,-0.133308 z"
         id="path6398" />
      <path
         id="path6398-8"
         d="M 0,42.9175 28.405437,0 50.628677,14.55219 31.068246,61.302653 8.2271056,60.798811 Z"
         style="fill:#aaffee;fill-opacity:1;stroke:none;stroke-width:0.999999px;stroke-linecap:butt;stroke-linejoin:miter;stroke-opacity:1;filter:url(#filter2219)"
         transform="matrix(0.26458333,0,0,0.26458333,98.062872,78.317944)" />
      <path
         id="path6416"
         style="opacity:0.999;fill:url(#linearGradient1579);fill-opacity:1;stroke:none;stroke-width:3.84654;stroke-miterlimit:4;stroke-dasharray:none;stroke-opacity:1;filter:url(#filter1561)"
         d="m 145.71289,71.802734 c -9.28886,-0.09063 -24.52664,3.61995 -33.10351,8.060547 -8.86176,4.588037 -15.510238,9.660668 -26.185552,20.285159 -1.524786,1.51804 -3.132306,3.14896 -4.839844,4.9082 -2.660863,2.74117 -6.05625,6.96892 -9.283203,11.41016 -4.149018,5.71022 -8.019837,11.77281 -9.703125,15.47656 -4.912157,10.80815 -6.106384,17.84759 -4.578125,27.00195 1.062017,6.3617 1.621306,7.68696 7.753907,18.375 3.143562,5.47871 5.189742,10.15352 7.033203,16.07031 0.858595,2.75581 2.109288,6.06708 2.779297,7.35743 2.940567,5.66325 9.036834,10.97291 16.285156,14.18359 4.09121,1.81221 17.066446,6.29163 20.033206,6.91602 0.98801,0.20791 2.56117,0.7062 3.49609,1.10937 0.93491,0.40319 1.9517,0.62996 2.25977,0.50195 0.3081,-0.12805 0.90646,0.0132 1.33007,0.31446 0.424,0.30085 3.85416,1.21462 7.62305,2.02929 3.76891,0.81463 9.73669,2.6414 13.26172,4.0586 11.48136,4.61604 16.54624,5.64395 19.76172,4.00976 5.3045,-2.69584 12.12296,-10.96437 14.44922,-17.52343 2.68104,-7.55949 2.0561,-12.96378 -2.45703,-21.23047 -1.49726,-2.74251 -2.9173,-5.12652 -3.1543,-5.29688 -0.61728,-0.44379 -7.78815,-10.29704 -9.08399,-12.48242 -0.59894,-1.01023 -1.93088,-3.4644 -2.96093,-5.45508 -1.03008,-1.99066 -3.91484,-6.81096 -6.41211,-10.71093 -2.4973,-3.89997 -5.61132,-9.08568 -6.91992,-11.5254 -4.95815,-9.24355 -7.36226,-11.38175 -16.81446,-14.95507 -5.77817,-2.18433 -6.38867,-5.76563 -6.38867,-5.76563 0,0 3.60073,0.87069 9.03906,2.9336 3.46047,1.31258 5.23559,3.72737 5.95703,4.24609 2.50393,1.80023 8.72287,6.92339 11.20508,11.70703 4.77104,9.19465 7.10035,11.78035 12.6875,14.0957 15.86999,8.32537 30.83092,23.49989 40.70703,38.13672 l -83.80664,87.09961 c -15.26824,15.86795 -1.85458,53.07565 30.07618,83.42578 31.93077,30.35015 69.92902,42.00858 85.19726,26.14063 l 22.04883,-22.91602 c -14.52039,-13.80288 -24.65839,-25.12925 -31.12109,-35.3125 -6.46515,-10.18711 -9.2553,-19.43338 -8.45899,-28.36914 1.59262,-17.87151 16.28313,-32.52398 36.95313,-54.00586 23.42601,-24.34615 37.76835,-39.90798 39.60351,-54.36133 0.91758,-7.22666 -0.91704,-14.60982 -6.6875,-23.91601 -5.77046,-9.3062 -15.50381,-20.30099 -29.79297,-33.88281 l 2.83594,-2.98243 -2.75977,2.86914 c -2.23032,-2.58572 -4.02422,-6.7719 -6.82226,-9.54882 l -16.5625,-16.43946 c -3.29049,-4.18741 -6.5896,-8.0542 -9.80664,-11.45898 C 210.16057,95.56357 198.583,87.115869 186.74609,81.837891 c -1.29033,-0.575347 -3.24987,-1.513084 -4.35547,-2.082032 -1.10559,-0.568947 -2.17886,-1.045428 -2.38281,-1.060547 -0.20398,-0.01512 -2.25313,-0.74102 -4.55469,-1.611328 -8.48835,-3.20954 -19.59763,-5.182234 -29.74023,-5.28125 z m 155.42383,36.404296 c -8.33195,-0.1479 -15.32243,2.1233 -20.09375,7.08203 l -22.04883,22.91602 c 14.5204,13.80289 24.67292,25.13478 31.0625,35.43945 6.392,10.30858 8.98988,19.81929 7.81055,29.10742 -2.35866,18.57628 -18.33375,34.523 -41.75977,58.86914 -20.66999,21.48188 -33.53853,35.47521 -34.76172,49.20118 -0.61159,6.86298 1.38044,14.15174 7.25,23.40039 5.86956,9.24864 15.61318,20.24825 29.90235,33.83007 l -2.9336,3.08399 2.99024,-3.10742 c 2.39917,2.35613 5.16404,4.67667 7.75781,7.75195 l 15.49414,18.37109 c 3.29051,4.18746 6.58963,8.05615 9.80664,11.46094 10.22615,10.82313 21.80368,19.27079 33.64063,24.54883 1.29031,0.57532 3.24985,1.51306 4.35547,2.08203 1.1056,0.56897 2.17687,1.04543 2.38085,1.06055 0.20402,0.0151 2.25311,0.74101 4.55469,1.61133 8.48852,3.20976 19.59958,5.18222 29.74219,5.28125 9.28883,0.0907 24.52662,-3.61998 33.10351,-8.06055 8.86179,-4.58805 15.51024,-9.66072 26.18555,-20.28516 1.52421,-1.51861 3.13203,-3.14729 4.83985,-4.90625 2.66082,-2.74118 6.05628,-6.97082 9.2832,-11.41211 4.14901,-5.71018 8.01987,-11.77082 9.70312,-15.47461 4.91218,-10.80813 6.10638,-17.84951 4.57813,-27.0039 -1.06205,-6.36173 -1.62128,-7.68501 -7.75391,-18.37305 -3.14358,-5.47874 -5.18974,-10.15548 -7.0332,-16.07226 -0.8586,-2.75584 -2.10923,-6.06705 -2.7793,-7.35743 -2.94055,-5.66323 -9.03685,-10.97296 -16.28515,-14.18359 -4.09123,-1.81223 -17.06647,-6.2897 -20.03321,-6.91406 -0.98804,-0.20795 -2.56115,-0.70815 -3.49609,-1.11133 -0.93494,-0.40321 -1.9517,-0.62802 -2.25977,-0.5 -0.30803,0.12816 -0.90646,-0.0151 -1.33007,-0.31641 -0.42403,-0.30089 -3.85414,-1.21466 -7.62305,-2.02929 -3.76891,-0.81466 -9.73671,-2.63947 -13.26172,-4.05665 -7.89345,-3.17352 -12.75421,-4.65183 -16.06641,-4.73437 -1.50554,-0.0375 -2.69047,0.21393 -3.69531,0.72461 -5.30451,2.69584 -12.12296,10.96437 -14.44922,17.52344 -2.68104,7.55946 -2.0561,12.96182 2.45703,21.22851 1.49724,2.74252 2.9173,5.12652 3.1543,5.29688 0.61726,0.44379 7.78814,10.29701 9.08399,12.48242 0.59894,1.0102 1.93087,3.46441 2.96093,5.45508 1.0301,1.9907 3.91486,6.81096 6.41211,10.71093 2.49731,3.89999 5.61128,9.08763 6.91992,11.52735 4.95815,9.24358 7.36227,11.3798 16.81446,14.95312 5.77818,2.18434 6.38867,5.76563 6.38867,5.76563 0,0 -3.60078,-0.87073 -9.03906,-2.9336 -3.4605,-1.3126 -5.23559,-3.72737 -5.95703,-4.24609 -2.50394,-1.80024 -8.72287,-6.92143 -11.20508,-11.70508 -4.77103,-9.19463 -7.10036,-11.78035 -12.6875,-14.0957 -15.68002,-8.22571 -30.81319,-23.6465 -40.70508,-38.14063 l 83.80469,-87.09765 c 15.26824,-15.86795 1.8546,-53.07564 -30.07618,-83.42578 -21.95239,-20.86572 -46.77322,-32.89728 -65.10351,-33.22266 z m -170.82617,51.80859 c 0.4839,0.004 1.19792,0.47359 2.39453,1.33399 2.33047,1.67552 4.44506,4.66795 5.1914,7.34375 0.4173,1.49623 -0.8889,2.55337 -2.80468,2.27148 -4.29729,-0.63234 -6.97686,-4.43035 -6.02539,-8.53906 0.25765,-1.11254 0.44989,-1.81691 0.73437,-2.16016 0.0299,-0.0355 0.0606,-0.0671 0.0918,-0.0957 0.11923,-0.10484 0.25667,-0.15558 0.41797,-0.1543 z m -23.78516,42.19727 c 1.60764,-0.0402 3.25348,0.58071 4.71484,1.88086 3.24998,2.89174 2.85795,4.54869 -1.16992,4.94141 -3.01345,0.29382 -6.2334,-0.3364 -8.36914,-1.63672 -1.07276,-0.65314 -1.34478,-0.86647 -0.87695,-1.59375 0.15598,-0.24238 0.39487,-0.54191 0.71289,-0.9336 0.16396,-0.20216 0.3339,-0.39297 0.50781,-0.57226 1.30448,-1.34444 2.87284,-2.04574 4.48047,-2.08594 z m 296.54102,100.68555 c 2.66428,-0.0586 5.36362,0.56536 7.23242,1.70312 1.0727,0.6531 1.34478,0.86647 0.87695,1.59375 -0.15609,0.24219 -0.39484,0.54194 -0.71289,0.9336 -0.16327,0.20273 -0.3341,0.39285 -0.50781,0.57226 -2.60901,2.68881 -6.27261,2.80543 -9.19531,0.20508 -3.25002,-2.89174 -2.85793,-4.54869 1.16992,-4.94141 0.37668,-0.0367 0.7561,-0.058 1.13672,-0.0664 z m -26.84571,38.09179 c 0.21826,-0.005 0.44803,0.01 0.6875,0.0449 4.29729,0.63235 6.97685,4.43035 6.02539,8.53906 -0.25776,1.11255 -0.44992,1.8169 -0.73437,2.16016 -0.0302,0.0344 -0.0612,0.0668 -0.0918,0.0957 -0.47679,0.41948 -1.21701,-0.0325 -2.8125,-1.17969 -2.33044,-1.67551 -4.44503,-4.66792 -5.1914,-7.34375 -0.36513,-1.30919 0.58939,-2.28231 2.11718,-2.31641 z"
         transform="scale(0.26458333)" />
    </g>
  </g>
</svg>
